<mxfile host="app.diagrams.net" modified="2021-07-08T17:50:19.512Z" agent="5.0 (Windows NT 10.0; Win64; x64) AppleWebKit/537.36 (KHTML, like Gecko) Chrome/91.0.4472.124 Safari/537.36" etag="6ig32jPL1XfxGbc2YbKX" version="14.8.5" type="github">
  <diagram name="Page-1" id="9f46799a-70d6-7492-0946-bef42562c5a5">
    <mxGraphModel dx="2076" dy="1092" grid="1" gridSize="10" guides="1" tooltips="1" connect="1" arrows="1" fold="1" page="1" pageScale="1" pageWidth="4000" pageHeight="4000" background="none" math="0" shadow="0">
      <root>
        <mxCell id="0" />
        <mxCell id="1" parent="0" />
        <mxCell id="pImH6Mx9zYfji8Ey0wbx-51" style="edgeStyle=orthogonalEdgeStyle;rounded=0;orthogonalLoop=1;jettySize=auto;html=1;exitX=0.5;exitY=1;exitDx=0;exitDy=0;entryX=0.5;entryY=0;entryDx=0;entryDy=0;fontSize=12;startSize=26;strokeWidth=2;" edge="1" parent="1" source="78961159f06e98e8-17" target="pImH6Mx9zYfji8Ey0wbx-22">
          <mxGeometry relative="1" as="geometry" />
        </mxCell>
        <mxCell id="pImH6Mx9zYfji8Ey0wbx-52" style="edgeStyle=orthogonalEdgeStyle;rounded=0;orthogonalLoop=1;jettySize=auto;html=1;exitX=0.5;exitY=1;exitDx=0;exitDy=0;fontSize=12;startSize=26;strokeWidth=2;" edge="1" parent="1" source="78961159f06e98e8-17" target="pImH6Mx9zYfji8Ey0wbx-46">
          <mxGeometry relative="1" as="geometry" />
        </mxCell>
        <mxCell id="78961159f06e98e8-17" value="WDI_data" style="swimlane;html=1;fontStyle=1;align=center;verticalAlign=top;childLayout=stackLayout;horizontal=1;startSize=26;horizontalStack=0;resizeParent=1;resizeLast=0;collapsible=1;marginBottom=0;swimlaneFillColor=#ffffff;rounded=0;shadow=0;comic=0;labelBackgroundColor=none;strokeWidth=1;fillColor=none;fontFamily=Verdana;fontSize=12;arcSize=15;rotatable=0;" parent="1" vertex="1">
          <mxGeometry x="760" y="200" width="160" height="150" as="geometry">
            <mxRectangle x="280" y="200" width="100" height="26" as="alternateBounds" />
          </mxGeometry>
        </mxCell>
        <mxCell id="78961159f06e98e8-21" value="Class: List&lt;br&gt;Elements: 2" style="text;html=1;strokeColor=none;fillColor=none;align=left;verticalAlign=top;spacingLeft=4;spacingRight=4;whiteSpace=wrap;overflow=hidden;rotatable=0;points=[[0,0.5],[1,0.5]];portConstraint=eastwest;allowArrows=0;connectable=0;" parent="78961159f06e98e8-17" vertex="1">
          <mxGeometry y="26" width="160" height="42" as="geometry" />
        </mxCell>
        <mxCell id="78961159f06e98e8-19" value="" style="line;html=1;strokeWidth=1;fillColor=none;align=left;verticalAlign=middle;spacingTop=-1;spacingLeft=3;spacingRight=3;rotatable=0;labelPosition=right;points=[];portConstraint=eastwest;" parent="78961159f06e98e8-17" vertex="1">
          <mxGeometry y="68" width="160" height="8" as="geometry" />
        </mxCell>
        <mxCell id="pImH6Mx9zYfji8Ey0wbx-6" value="Elements:&lt;br&gt;- country&lt;br&gt;- series&lt;br&gt;Source: WDI package" style="text;html=1;strokeColor=none;fillColor=none;align=left;verticalAlign=top;spacingLeft=4;spacingRight=4;whiteSpace=wrap;overflow=hidden;rotatable=0;points=[[0,0.5],[1,0.5]];portConstraint=eastwest;allowArrows=0;connectable=0;" vertex="1" parent="78961159f06e98e8-17">
          <mxGeometry y="76" width="160" height="74" as="geometry" />
        </mxCell>
        <mxCell id="pImH6Mx9zYfji8Ey0wbx-9" value="brewer.pal.info" style="swimlane;html=1;fontStyle=1;align=center;verticalAlign=top;childLayout=stackLayout;horizontal=1;startSize=26;horizontalStack=0;resizeParent=1;resizeLast=0;collapsible=1;marginBottom=0;swimlaneFillColor=#ffffff;rounded=0;shadow=0;comic=0;labelBackgroundColor=none;strokeWidth=1;fillColor=none;fontFamily=Verdana;fontSize=12;arcSize=15;resizable=1;resizeWidth=0;resizeHeight=0;rotatable=0;" vertex="1" parent="1">
          <mxGeometry x="1400" y="200" width="160" height="190" as="geometry">
            <mxRectangle x="420" y="83" width="100" height="26" as="alternateBounds" />
          </mxGeometry>
        </mxCell>
        <mxCell id="pImH6Mx9zYfji8Ey0wbx-56" value="Class: dataframe&lt;br&gt;Obs: 304&lt;br&gt;Variables: 9" style="text;html=1;strokeColor=none;fillColor=none;align=left;verticalAlign=top;spacingLeft=4;spacingRight=4;whiteSpace=wrap;overflow=hidden;rotatable=0;points=[[0,0.5],[1,0.5]];portConstraint=eastwest;cloneable=1;connectable=0;allowArrows=0;" vertex="1" parent="pImH6Mx9zYfji8Ey0wbx-9">
          <mxGeometry y="26" width="160" height="54" as="geometry" />
        </mxCell>
        <mxCell id="pImH6Mx9zYfji8Ey0wbx-11" value="" style="line;html=1;strokeWidth=1;fillColor=none;align=left;verticalAlign=middle;spacingTop=-1;spacingLeft=3;spacingRight=3;rotatable=0;labelPosition=right;points=[];portConstraint=eastwest;" vertex="1" parent="pImH6Mx9zYfji8Ey0wbx-9">
          <mxGeometry y="80" width="160" height="8" as="geometry" />
        </mxCell>
        <mxCell id="pImH6Mx9zYfji8Ey0wbx-18" value="Variables:&lt;br&gt;- maxcolors&lt;br&gt;- category&lt;br&gt;- colorblind&lt;br&gt;Source: RColorBrewer package" style="text;html=1;strokeColor=none;fillColor=none;align=left;verticalAlign=top;spacingLeft=4;spacingRight=4;whiteSpace=wrap;overflow=hidden;rotatable=0;points=[[0,0.5],[1,0.5]];portConstraint=eastwest;allowArrows=0;connectable=0;" vertex="1" parent="pImH6Mx9zYfji8Ey0wbx-9">
          <mxGeometry y="88" width="160" height="102" as="geometry" />
        </mxCell>
        <mxCell id="pImH6Mx9zYfji8Ey0wbx-19" value="Common to every session" style="rounded=1;whiteSpace=wrap;html=1;startSize=26;rotation=-90;fillColor=#ffe6cc;strokeColor=#d79b00;fontSize=22;" vertex="1" parent="1">
          <mxGeometry x="-540" y="738.75" width="1237.5" height="80" as="geometry" />
        </mxCell>
        <mxCell id="pImH6Mx9zYfji8Ey0wbx-45" style="edgeStyle=orthogonalEdgeStyle;rounded=0;orthogonalLoop=1;jettySize=auto;html=1;exitX=0.5;exitY=1;exitDx=0;exitDy=0;entryX=0.5;entryY=0;entryDx=0;entryDy=0;fontSize=12;startSize=26;strokeWidth=2;" edge="1" parent="1" source="pImH6Mx9zYfji8Ey0wbx-22" target="pImH6Mx9zYfji8Ey0wbx-38">
          <mxGeometry relative="1" as="geometry" />
        </mxCell>
        <mxCell id="pImH6Mx9zYfji8Ey0wbx-22" value="ctry_df" style="swimlane;html=1;fontStyle=1;align=center;verticalAlign=top;childLayout=stackLayout;horizontal=1;startSize=26;horizontalStack=0;resizeParent=1;resizeLast=0;collapsible=1;marginBottom=0;swimlaneFillColor=#ffffff;rounded=0;shadow=0;comic=0;labelBackgroundColor=none;strokeWidth=1;fillColor=none;fontFamily=Verdana;fontSize=12;arcSize=15;rotatable=0;" vertex="1" parent="1">
          <mxGeometry x="480" y="440" width="160" height="280" as="geometry">
            <mxRectangle x="280" y="200" width="100" height="26" as="alternateBounds" />
          </mxGeometry>
        </mxCell>
        <mxCell id="pImH6Mx9zYfji8Ey0wbx-23" value="Class: dataframe&lt;br&gt;Obs: 304&lt;br&gt;Variables: 9" style="text;html=1;strokeColor=none;fillColor=none;align=left;verticalAlign=top;spacingLeft=4;spacingRight=4;whiteSpace=wrap;overflow=hidden;rotatable=0;points=[[0,0.5],[1,0.5]];portConstraint=eastwest;cloneable=1;connectable=0;allowArrows=0;" vertex="1" parent="pImH6Mx9zYfji8Ey0wbx-22">
          <mxGeometry y="26" width="160" height="54" as="geometry" />
        </mxCell>
        <mxCell id="pImH6Mx9zYfji8Ey0wbx-24" value="" style="line;html=1;strokeWidth=1;fillColor=none;align=left;verticalAlign=middle;spacingTop=-1;spacingLeft=3;spacingRight=3;rotatable=0;labelPosition=right;points=[];portConstraint=eastwest;" vertex="1" parent="pImH6Mx9zYfji8Ey0wbx-22">
          <mxGeometry y="80" width="160" height="8" as="geometry" />
        </mxCell>
        <mxCell id="pImH6Mx9zYfji8Ey0wbx-28" value="Variables&#xa;- iso3c&#xa;- iso2c&#xa;- country&#xa;- region&#xa;- capital&#xa;- longitude&#xa;- latitude&#xa;- income&#xa;- lending&#xa;Includes countries (218) and &quot;Aggregates&quot; (86).&#xa;" style="text;fontSize=12;verticalAlign=top;spacing=2;whiteSpace=wrap;connectable=0;allowArrows=0;spacingLeft=4;spacingRight=4;spacingBottom=0;" vertex="1" parent="pImH6Mx9zYfji8Ey0wbx-22">
          <mxGeometry y="88" width="160" height="192" as="geometry" />
        </mxCell>
        <mxCell id="pImH6Mx9zYfji8Ey0wbx-30" value="ctry_vec" style="swimlane;html=1;fontStyle=1;align=center;verticalAlign=top;childLayout=stackLayout;horizontal=1;startSize=26;horizontalStack=0;resizeParent=1;resizeLast=0;collapsible=1;marginBottom=0;swimlaneFillColor=#ffffff;rounded=0;shadow=0;comic=0;labelBackgroundColor=none;strokeWidth=1;fillColor=none;fontFamily=Verdana;fontSize=12;arcSize=15;rotatable=0;" vertex="1" parent="1">
          <mxGeometry x="280" y="800" width="160" height="130" as="geometry">
            <mxRectangle x="280" y="200" width="100" height="26" as="alternateBounds" />
          </mxGeometry>
        </mxCell>
        <mxCell id="pImH6Mx9zYfji8Ey0wbx-31" value="Class: vector (chr)&lt;br&gt;Length: 218&lt;br&gt;Description:&lt;br&gt;sort(ctry_df[ctry_df[ ,&quot;region&quot;] != &quot;Aggregates&quot;, &quot;country&quot;])" style="text;html=1;strokeColor=none;fillColor=none;align=left;verticalAlign=top;spacingLeft=4;spacingRight=4;whiteSpace=wrap;overflow=hidden;rotatable=0;points=[[0,0.5],[1,0.5]];portConstraint=eastwest;connectable=0;allowArrows=0;" vertex="1" parent="pImH6Mx9zYfji8Ey0wbx-30">
          <mxGeometry y="26" width="160" height="104" as="geometry" />
        </mxCell>
        <mxCell id="pImH6Mx9zYfji8Ey0wbx-34" style="edgeStyle=orthogonalEdgeStyle;rounded=0;orthogonalLoop=1;jettySize=auto;html=1;exitX=0.5;exitY=1;exitDx=0;exitDy=0;entryX=0.5;entryY=0;entryDx=0;entryDy=0;fontSize=12;startSize=26;strokeWidth=2;" edge="1" parent="1" source="pImH6Mx9zYfji8Ey0wbx-28" target="pImH6Mx9zYfji8Ey0wbx-30">
          <mxGeometry relative="1" as="geometry" />
        </mxCell>
        <mxCell id="pImH6Mx9zYfji8Ey0wbx-35" value="reg_vec" style="swimlane;html=1;fontStyle=1;align=center;verticalAlign=top;childLayout=stackLayout;horizontal=1;startSize=26;horizontalStack=0;resizeParent=1;resizeLast=0;collapsible=1;marginBottom=0;swimlaneFillColor=#ffffff;rounded=0;shadow=0;comic=0;labelBackgroundColor=none;strokeWidth=1;fillColor=none;fontFamily=Verdana;fontSize=12;arcSize=15;rotatable=0;" vertex="1" parent="1">
          <mxGeometry x="480" y="800" width="160" height="130" as="geometry">
            <mxRectangle x="280" y="200" width="100" height="26" as="alternateBounds" />
          </mxGeometry>
        </mxCell>
        <mxCell id="pImH6Mx9zYfji8Ey0wbx-36" value="Class: vector (chr)&lt;br&gt;Length: 86&lt;br&gt;Description:&lt;br&gt;sort(ctry_df[ctry_df[ ,&quot;region&quot;] == &quot;Aggregates&quot;, &quot;country&quot;])" style="text;html=1;strokeColor=none;fillColor=none;align=left;verticalAlign=top;spacingLeft=4;spacingRight=4;whiteSpace=wrap;overflow=hidden;rotatable=0;points=[[0,0.5],[1,0.5]];portConstraint=eastwest;connectable=0;allowArrows=0;recursiveResize=1;autosize=1;" vertex="1" parent="pImH6Mx9zYfji8Ey0wbx-35">
          <mxGeometry y="26" width="160" height="104" as="geometry" />
        </mxCell>
        <mxCell id="pImH6Mx9zYfji8Ey0wbx-37" style="edgeStyle=orthogonalEdgeStyle;rounded=0;orthogonalLoop=1;jettySize=auto;html=1;exitX=0.5;exitY=1;exitDx=0;exitDy=0;entryX=0.5;entryY=0;entryDx=0;entryDy=0;fontSize=12;startSize=26;strokeWidth=2;" edge="1" parent="1" source="pImH6Mx9zYfji8Ey0wbx-28" target="pImH6Mx9zYfji8Ey0wbx-35">
          <mxGeometry relative="1" as="geometry" />
        </mxCell>
        <mxCell id="pImH6Mx9zYfji8Ey0wbx-38" value="flags_df" style="swimlane;html=1;fontStyle=1;align=center;verticalAlign=top;childLayout=stackLayout;horizontal=1;startSize=26;horizontalStack=0;resizeParent=1;resizeLast=0;collapsible=1;marginBottom=0;swimlaneFillColor=#ffffff;rounded=0;shadow=0;comic=0;labelBackgroundColor=none;strokeWidth=1;fillColor=none;fontFamily=Verdana;fontSize=12;arcSize=15;rotatable=0;whiteSpace=wrap;autosize=0;container=0;" vertex="1" parent="1">
          <mxGeometry x="680" y="800" width="160" height="260" as="geometry">
            <mxRectangle x="280" y="200" width="100" height="26" as="alternateBounds" />
          </mxGeometry>
        </mxCell>
        <mxCell id="pImH6Mx9zYfji8Ey0wbx-39" value="Class: dataframe&lt;br&gt;Obs: 218&lt;br&gt;Variables: 3" style="text;html=1;strokeColor=none;fillColor=none;align=left;verticalAlign=top;spacingLeft=4;spacingRight=4;whiteSpace=wrap;overflow=hidden;rotatable=0;points=[[0,0.5],[1,0.5]];portConstraint=eastwest;allowArrows=0;connectable=0;" vertex="1" parent="pImH6Mx9zYfji8Ey0wbx-38">
          <mxGeometry y="26" width="160" height="54" as="geometry" />
        </mxCell>
        <mxCell id="pImH6Mx9zYfji8Ey0wbx-40" value="" style="line;html=1;strokeWidth=1;fillColor=none;align=left;verticalAlign=middle;spacingTop=-1;spacingLeft=3;spacingRight=3;rotatable=0;labelPosition=right;points=[];portConstraint=eastwest;" vertex="1" parent="pImH6Mx9zYfji8Ey0wbx-38">
          <mxGeometry y="80" width="160" height="8" as="geometry" />
        </mxCell>
        <UserObject label="Variables&lt;br&gt;- iso2c&lt;br&gt;- country&lt;br&gt;- URL&lt;br&gt;&lt;br&gt;URL variable structure:&lt;br&gt;link + iso2c (lower caps) + &quot;.svg&quot;&lt;br&gt;&lt;br&gt;For the Channel Islands we use wikipedia." link="https://cdn.rawgit.com/lipis/flag-icon-css/master/flags/4x3/" id="pImH6Mx9zYfji8Ey0wbx-41">
          <mxCell style="text;fontSize=12;verticalAlign=top;spacing=2;autosize=0;container=0;allowArrows=0;connectable=0;noLabel=0;pointerEvents=1;recursiveResize=1;imageAspect=1;html=1;whiteSpace=wrap;" vertex="1" parent="pImH6Mx9zYfji8Ey0wbx-38">
            <mxGeometry y="88" width="160" height="172" as="geometry" />
          </mxCell>
        </UserObject>
        <mxCell id="pImH6Mx9zYfji8Ey0wbx-55" style="edgeStyle=orthogonalEdgeStyle;rounded=0;orthogonalLoop=1;jettySize=auto;html=1;exitX=0.5;exitY=1;exitDx=0;exitDy=0;entryX=0.5;entryY=0;entryDx=0;entryDy=0;fontSize=12;startSize=26;strokeWidth=2;" edge="1" parent="1" source="pImH6Mx9zYfji8Ey0wbx-46" target="pImH6Mx9zYfji8Ey0wbx-53">
          <mxGeometry relative="1" as="geometry" />
        </mxCell>
        <mxCell id="pImH6Mx9zYfji8Ey0wbx-46" value="var_df" style="swimlane;html=1;fontStyle=1;align=center;verticalAlign=top;childLayout=stackLayout;horizontal=1;startSize=26;horizontalStack=0;resizeParent=1;resizeLast=0;collapsible=1;marginBottom=0;swimlaneFillColor=#ffffff;rounded=0;shadow=0;comic=0;labelBackgroundColor=none;strokeWidth=1;fillColor=none;fontFamily=Verdana;fontSize=12;arcSize=15;rotatable=0;" vertex="1" parent="1">
          <mxGeometry x="960" y="440" width="160" height="220" as="geometry">
            <mxRectangle x="280" y="200" width="100" height="26" as="alternateBounds" />
          </mxGeometry>
        </mxCell>
        <mxCell id="pImH6Mx9zYfji8Ey0wbx-47" value="Class: dataframe&lt;br&gt;Obs: 17467&lt;br&gt;Variables: 6" style="text;html=1;strokeColor=none;fillColor=none;align=left;verticalAlign=top;spacingLeft=4;spacingRight=4;whiteSpace=wrap;overflow=hidden;rotatable=0;points=[[0,0.5],[1,0.5]];portConstraint=eastwest;cloneable=1;connectable=0;allowArrows=0;" vertex="1" parent="pImH6Mx9zYfji8Ey0wbx-46">
          <mxGeometry y="26" width="160" height="54" as="geometry" />
        </mxCell>
        <mxCell id="pImH6Mx9zYfji8Ey0wbx-48" value="" style="line;html=1;strokeWidth=1;fillColor=none;align=left;verticalAlign=middle;spacingTop=-1;spacingLeft=3;spacingRight=3;rotatable=0;labelPosition=right;points=[];portConstraint=eastwest;" vertex="1" parent="pImH6Mx9zYfji8Ey0wbx-46">
          <mxGeometry y="80" width="160" height="8" as="geometry" />
        </mxCell>
        <mxCell id="pImH6Mx9zYfji8Ey0wbx-49" value="Variables&#xa;- indicator&#xa;- name&#xa;- description&#xa;- sourceDatabase&#xa;- sourceOrganization&#xa;- name_indicator: (name | indicator)" style="text;fontSize=12;verticalAlign=top;spacing=2;whiteSpace=wrap;connectable=0;allowArrows=0;spacingLeft=4;spacingRight=4;" vertex="1" parent="pImH6Mx9zYfji8Ey0wbx-46">
          <mxGeometry y="88" width="160" height="132" as="geometry" />
        </mxCell>
        <mxCell id="pImH6Mx9zYfji8Ey0wbx-53" value="var_vec" style="swimlane;html=1;fontStyle=1;align=center;verticalAlign=top;childLayout=stackLayout;horizontal=1;startSize=26;horizontalStack=0;resizeParent=1;resizeLast=0;collapsible=1;marginBottom=0;swimlaneFillColor=#ffffff;rounded=0;shadow=0;comic=0;labelBackgroundColor=none;strokeWidth=1;fillColor=none;fontFamily=Verdana;fontSize=12;arcSize=15;rotatable=0;" vertex="1" parent="1">
          <mxGeometry x="960" y="800" width="160" height="100" as="geometry">
            <mxRectangle x="280" y="200" width="100" height="26" as="alternateBounds" />
          </mxGeometry>
        </mxCell>
        <mxCell id="pImH6Mx9zYfji8Ey0wbx-54" value="Class: vector (chr)&lt;br&gt;Length: 17467&lt;br&gt;Description:&lt;br&gt;var_df$name_indicator" style="text;html=1;strokeColor=none;fillColor=none;align=left;verticalAlign=top;spacingLeft=4;spacingRight=4;whiteSpace=wrap;overflow=hidden;rotatable=0;points=[[0,0.5],[1,0.5]];portConstraint=eastwest;connectable=0;allowArrows=0;recursiveResize=1;autosize=1;" vertex="1" parent="pImH6Mx9zYfji8Ey0wbx-53">
          <mxGeometry y="26" width="160" height="74" as="geometry" />
        </mxCell>
        <mxCell id="pImH6Mx9zYfji8Ey0wbx-57" value="var_vec" style="swimlane;html=1;fontStyle=1;align=center;verticalAlign=top;childLayout=stackLayout;horizontal=1;startSize=26;horizontalStack=0;resizeParent=1;resizeLast=0;collapsible=1;marginBottom=0;swimlaneFillColor=#ffffff;rounded=0;shadow=0;comic=0;labelBackgroundColor=none;strokeWidth=1;fillColor=none;fontFamily=Verdana;fontSize=12;arcSize=15;rotatable=0;" vertex="1" parent="1">
          <mxGeometry x="1400" y="480" width="160" height="100" as="geometry">
            <mxRectangle x="280" y="200" width="100" height="26" as="alternateBounds" />
          </mxGeometry>
        </mxCell>
        <mxCell id="pImH6Mx9zYfji8Ey0wbx-58" value="Class: vector (chr)&lt;br&gt;Length: 17467&lt;br&gt;Description:&lt;br&gt;var_df$name_indicator" style="text;html=1;strokeColor=none;fillColor=none;align=left;verticalAlign=top;spacingLeft=4;spacingRight=4;whiteSpace=wrap;overflow=hidden;rotatable=0;points=[[0,0.5],[1,0.5]];portConstraint=eastwest;connectable=0;allowArrows=0;recursiveResize=1;autosize=1;" vertex="1" parent="pImH6Mx9zYfji8Ey0wbx-57">
          <mxGeometry y="26" width="160" height="74" as="geometry" />
        </mxCell>
      </root>
    </mxGraphModel>
  </diagram>
</mxfile>
